HIERARCHY
ROOT Hips
{
	OFFSET 0.00000 0.00000 0.00000
	CHANNELS 6 Xposition Yposition Zposition Zrotation Yrotation Xrotation 
	JOINT RightUpLegDummy
	{
		OFFSET 0 0 0
		CHANNELS 3 Zrotation Yrotation Xrotation
		JOINT RightUpLeg
		{
			OFFSET -3.52197 -3.41223 0.04002
			CHANNELS 3 Zrotation Yrotation Xrotation
			JOINT RightLeg
			{
				OFFSET 0.00006 -17.42390 1.60435
				CHANNELS 3 Zrotation Yrotation Xrotation
				JOINT RightFoot
				{
					OFFSET 0.06154 -16.50078 -1.63900
					CHANNELS 3 Zrotation Yrotation Xrotation
					JOINT RightToes
					{
						OFFSET 0.00298 -1.73825 3.34613
						CHANNELS 3 Zrotation Yrotation Xrotation
						End Site
						{
							OFFSET 0.00480 -0.05416 3.85043
						}
					}
				}
			}
		}
	}
	JOINT SpineDummy
	{
		OFFSET 0 0 0
		CHANNELS 3 Zrotation Yrotation Xrotation
		JOINT Spine
		{
			OFFSET 0.00000 4.68130 0.00000
			CHANNELS 3 Zrotation Yrotation Xrotation
			JOINT Spine1
			{
				OFFSET -0.00000 10.10138 0.05002
				CHANNELS 3 Zrotation Yrotation Xrotation
				JOINT HEadDummy
				{
					OFFSET 0 0 0
					CHANNELS 3 Zrotation Yrotation Xrotation
					JOINT Head
					{
						OFFSET -0.00000 3.43865 0.00438
						CHANNELS 3 Zrotation Yrotation Xrotation
						End Site
						{
							OFFSET -0.11417 5.02924 0.98962
						}
					}
				}
				JOINT LeftShoulder1Dummy
				{
					OFFSET 0 0 0
					CHANNELS 3 Zrotation Yrotation Xrotation
					JOINT LeftShoulder1
					{
						OFFSET 3.53937 -0.14262 -0.08662
						CHANNELS 3 Zrotation Yrotation Xrotation
						JOINT LeftArm
						{
							OFFSET 4.04833 -0.00133 0.12681
							CHANNELS 3 Zrotation Yrotation Xrotation
							JOINT LeftForeArm
							{
								OFFSET 10.33880 -0.01036 -0.55515
								CHANNELS 3 Zrotation Yrotation Xrotation
								JOINT LeftHand
								{
									OFFSET 8.69677 0.07543 0.40060
									CHANNELS 3 Zrotation Yrotation Xrotation
									End Site
									{
										OFFSET 5.28377 -0.21905 0.59205
									}
								}
							}
						}
					}
				}
				JOINT RightShoulderDummy
				{
					OFFSET 0 0 0
					CHANNELS 3 Zrotation Yrotation Xrotation
					JOINT RightShoulder
					{
						OFFSET -3.53937 -0.14262 -0.08660
						CHANNELS 3 Zrotation Yrotation Xrotation
						JOINT RightArm
						{
							OFFSET -4.04833 -0.00133 0.12683
							CHANNELS 3 Zrotation Yrotation Xrotation
							JOINT RightForeArm
							{
								OFFSET -10.37987 -0.01039 -0.55511
								CHANNELS 3 Zrotation Yrotation Xrotation
								JOINT RightHand
								{
									OFFSET -8.67398 0.07538 0.40058
									CHANNELS 3 Zrotation Yrotation Xrotation
									End Site
									{
										OFFSET -5.24810 -0.21916 0.59204
									}
								}
							}
						}
					}
				}
			}
		}
	}
	JOINT LeftUpLegDummy
	{
		OFFSET 0 0 0
		CHANNELS 3 Zrotation Yrotation Xrotation
		JOINT LeftUpLeg
		{
			OFFSET 3.52197 -3.41223 0.04002
			CHANNELS 3 Zrotation Yrotation Xrotation
			JOINT LeftLeg
			{
				OFFSET -0.00012 -17.42399 1.60337
				CHANNELS 3 Zrotation Yrotation Xrotation
				JOINT LeftFoot
				{
					OFFSET -0.09972 -16.50070 -1.63802
					CHANNELS 3 Zrotation Yrotation Xrotation
					JOINT LeftToes
					{
						OFFSET -0.01575 -1.73823 3.34611
						CHANNELS 3 Zrotation Yrotation Xrotation
						End Site
						{
							OFFSET 0.03150 -0.01868 3.85031
						}
					}
				}
			}
		}
	}
}
MOTION
Frames: 18
Frame Time: 0.033333
4.0681 35.7485 12.8238 166.7220 -20.3768 -179.1340 0.0000 0.0000 0.0000 -37.1800 -7.2948 -3.1097 -6.9487 -8.3801 33.2501 34.0786 0.3114 -12.5100 -0.0000 -0.0000 0.0000 0.0000 0.0000 0.0000 24.4688 4.5632 10.0587 1.1831 6.8788 14.6421 0.0000 0.0000 0.0000 -17.5120 -27.0058 -3.2548 0.0000 0.0000 0.0000 -16.2698 -1.8237 1.2260 -57.8739 4.8035 24.6402 -0.7803 -73.7826 5.8989 21.2909 -1.7839 -1.3086 0.0000 0.0000 0.0000 12.7437 1.2526 0.9417 49.5618 35.9962 -8.8635 27.0514 85.1111 -19.8535 -39.4144 8.4042 -4.8050 0.0000 0.0000 0.0000 6.4567 -9.4845 -23.3867 -5.5054 -7.8810 31.1942 -22.1842 0.6113 -8.4769 -0.0000 -0.0000 -0.0000
3.2879 36.2922 12.5735 167.8650 -17.7496 -178.7570 0.0000 0.0000 0.0000 -36.3909 -6.4142 -2.7976 -7.3296 -10.6350 28.3562 33.7553 -1.2540 -7.3145 -0.0000 -0.0000 0.0000 0.0000 0.0000 0.0000 24.4271 4.7585 9.7456 -0.4403 7.5436 15.0149 0.0000 0.0000 0.0000 -17.2190 -25.3929 -4.2935 0.0000 0.0000 0.0000 -16.2385 -1.6125 1.1760 -57.8487 2.5319 25.3844 -1.1309 -75.9755 5.1019 20.1042 -2.2584 -1.3135 0.0000 0.0000 0.0000 13.2954 1.3727 0.9899 51.1801 32.2090 -0.1197 55.1305 87.3501 9.8501 -35.9401 7.0592 -3.9289 0.0000 0.0000 0.0000 5.9018 -8.3541 -21.6169 -4.5977 -6.5083 31.7700 -20.3423 0.3682 -9.6029 -0.0000 -0.0000 -0.0000
2.5811 36.6116 12.3645 168.8820 -14.6700 -178.4320 0.0000 0.0000 0.0000 -35.8844 -5.7479 -3.5596 -7.6950 -12.6583 25.2734 34.0120 -2.7269 -2.4642 -0.0000 -0.0000 0.0000 0.0000 0.0000 0.0000 23.2378 4.8401 9.8480 -2.4419 8.1200 15.6051 0.0000 0.0000 0.0000 -15.8529 -23.5008 -6.4085 0.0000 0.0000 0.0000 -16.0154 -1.4119 1.1199 -57.9052 0.3822 25.6065 -2.3912 -78.8612 2.3411 20.4909 -2.3112 -1.3485 0.0000 0.0000 0.0000 13.6784 1.6608 1.0662 52.6290 29.3327 8.0810 106.8256 87.8226 64.6859 -30.7083 5.3761 -2.8733 0.0000 0.0000 0.0000 5.5835 -6.4935 -19.9276 -3.5003 -5.1896 31.1046 -19.7118 0.0927 -11.1835 -0.0000 -0.0000 -0.0000
1.9453 36.6914 12.2404 169.6630 -12.3199 -178.6000 0.0000 0.0000 0.0000 -35.8547 -6.7116 -4.1310 -8.4180 -14.7090 23.9245 32.9840 -3.6500 0.9865 -0.0000 -0.0000 0.0000 0.0000 0.0000 0.0000 20.7282 4.5562 10.6593 -4.1172 8.1787 15.9402 0.0000 0.0000 0.0000 -13.6165 -21.7808 -9.1993 0.0000 0.0000 0.0000 -15.7495 -1.4661 1.1201 -57.5464 -2.2629 25.5806 -5.1436 -82.0258 -0.6755 22.2963 -1.8534 -1.3855 0.0000 0.0000 0.0000 13.8438 2.0435 1.1535 54.4245 27.3437 14.2620 134.9272 87.1714 95.6818 -24.9977 3.8537 -1.9864 0.0000 0.0000 0.0000 5.2927 -5.0407 -18.6824 -2.8268 -4.3471 30.7649 -19.6868 -0.2688 -13.3531 -0.0000 -0.0000 -0.0000
1.3660 36.5738 12.2197 170.3580 -11.1917 -179.3810 0.0000 0.0000 0.0000 -35.8321 -8.9819 -4.6037 -9.3414 -15.6254 25.1631 29.2674 -3.4362 1.7591 -0.0000 -0.0000 0.0000 0.0000 0.0000 0.0000 17.5976 3.9537 12.1001 -4.9317 7.6693 16.2197 0.0000 0.0000 0.0000 -10.8018 -20.6939 -12.4194 0.0000 0.0000 0.0000 -15.3398 -1.9176 1.2011 -57.0550 -5.9785 25.0172 -10.0449 -84.3179 -2.2891 24.4467 -1.1129 -1.3715 0.0000 0.0000 0.0000 14.1310 2.4112 1.2454 55.8655 25.8497 19.2062 151.4268 86.0460 115.8995 -20.0202 2.8093 -1.3987 0.0000 0.0000 0.0000 5.0533 -4.1222 -18.3055 -2.8568 -4.1475 32.3440 -19.2628 -0.6025 -15.4398 -0.0000 -0.0000 -0.0000
0.9086 36.3446 12.2507 171.1420 -10.2659 179.6110 0.0000 0.0000 0.0000 -34.9849 -9.8627 -6.2616 -9.8005 -13.9186 29.5003 25.2335 -2.4307 -0.5284 -0.0000 -0.0000 0.0000 0.0000 0.0000 0.0000 14.4324 3.5621 13.5568 -5.1167 7.1801 17.1912 0.0000 0.0000 0.0000 -7.7028 -20.1162 -15.8479 0.0000 0.0000 0.0000 -14.4968 -2.6046 1.3060 -57.1091 -10.3843 23.7937 -14.3778 -84.9479 -4.0888 26.6581 -0.3774 -1.3340 0.0000 0.0000 0.0000 14.6984 2.7049 1.3392 56.1938 25.0090 23.6735 162.0991 84.3799 131.3279 -16.4739 2.3512 -1.0817 0.0000 0.0000 0.0000 5.1558 -2.3447 -18.5427 -3.7427 -4.7519 35.4134 -18.7668 -0.8531 -17.1191 -0.0000 -0.0000 -0.0000
0.6504 36.1167 12.2446 172.1100 -8.6741 178.9490 0.0000 0.0000 0.0000 -32.7519 -8.4193 -9.2659 -9.1605 -10.4034 35.4230 24.0179 -1.5195 -4.2414 -0.0000 -0.0000 0.0000 0.0000 0.0000 0.0000 11.3281 3.6977 14.2211 -5.1511 7.0559 18.8727 0.0000 0.0000 0.0000 -4.9185 -19.3951 -18.8701 0.0000 0.0000 0.0000 -13.5015 -3.2460 1.3823 -57.5440 -14.2110 22.2433 -14.3142 -84.1860 -8.5839 28.7240 0.2703 -1.2815 0.0000 0.0000 0.0000 15.2985 2.9048 1.4173 56.0255 25.1660 27.5544 166.2427 83.2194 138.5896 -14.4293 2.2358 -0.9308 0.0000 0.0000 0.0000 5.9287 0.6683 -18.8946 -5.2020 -5.8609 38.2505 -18.8377 -1.0840 -18.5376 -0.0000 -0.0000 -0.0000
0.5533 36.0113 12.1617 173.1070 -7.0969 178.9090 0.0000 0.0000 0.0000 -29.6752 -7.0110 -12.1240 -8.4609 -7.8916 40.6501 25.1213 -1.0136 -6.9109 -0.0000 -0.0000 0.0000 0.0000 0.0000 0.0000 8.3569 3.8934 13.8455 -5.2000 6.8471 20.4551 0.0000 0.0000 0.0000 -2.9430 -18.1871 -20.7853 0.0000 0.0000 0.0000 -13.0802 -3.7586 1.4595 -57.3585 -16.4564 20.6634 -12.4759 -82.9344 -12.7394 29.5762 1.0380 -1.1267 0.0000 0.0000 0.0000 15.7152 2.9873 1.4603 56.3878 25.7410 31.0617 166.4900 83.1854 139.4801 -13.7680 2.4273 -0.9091 0.0000 0.0000 0.0000 7.0259 3.1427 -19.1511 -6.2100 -6.6136 39.6370 -19.0757 -1.2393 -19.4036 -0.0000 -0.0000 -0.0000
0.4947 36.1271 12.0298 173.8230 -6.5778 179.2620 0.0000 0.0000 0.0000 -26.7653 -7.7039 -13.4743 -9.4230 -7.9438 43.7285 26.1438 -0.9066 -7.5629 -0.0000 -0.0000 0.0000 0.0000 0.0000 0.0000 6.0091 3.5313 12.9793 -5.2208 6.1335 21.3757 0.0000 0.0000 0.0000 -1.5903 -16.8479 -21.4615 0.0000 0.0000 0.0000 -13.3442 -4.2225 1.5709 -56.2189 -17.1918 19.3653 -10.9885 -81.8793 -14.7762 28.3806 1.9184 -0.8669 0.0000 0.0000 0.0000 15.9010 2.9565 1.4644 57.3972 25.5715 34.4469 166.3157 83.4416 140.3594 -14.0649 3.0708 -1.0028 0.0000 0.0000 0.0000 7.6682 3.3553 -19.0772 -5.7948 -6.2981 39.1107 -18.9039 -1.1699 -19.0438 -0.0000 -0.0000 -0.0000
0.4592 36.4614 11.8770 174.0140 -6.7386 179.7350 0.0000 0.0000 0.0000 -24.5582 -9.7643 -13.6050 -10.5786 -8.7736 44.3977 26.0638 -0.9320 -7.4378 -0.0000 -0.0000 0.0000 0.0000 0.0000 0.0000 4.4783 2.8211 12.1574 -5.4133 5.3342 21.7957 0.0000 0.0000 0.0000 -0.4692 -15.8133 -21.3270 0.0000 0.0000 0.0000 -13.5953 -4.5804 1.6618 -55.1420 -17.0629 18.9188 -9.9779 -81.1929 -15.1696 25.9316 2.5107 -0.6578 0.0000 0.0000 0.0000 15.7821 2.8779 1.4397 58.5792 24.2871 37.1531 167.9259 83.2253 145.4606 -14.0158 3.6759 -1.0676 0.0000 0.0000 0.0000 7.6016 1.9567 -18.3344 -4.2330 -5.0867 36.7616 -18.6497 -0.8899 -17.3929 -0.0000 -0.0000 -0.0000
0.5377 36.9311 11.7069 173.8620 -6.3835 -179.7060 0.0000 0.0000 0.0000 -22.7254 -10.9205 -13.5358 -9.0624 -7.8340 42.9175 26.4728 -0.8194 -7.9775 -0.0000 -0.0000 0.0000 0.0000 0.0000 0.0000 3.5198 2.3784 11.4310 -6.0867 5.0936 21.9421 0.0000 0.0000 0.0000 0.3528 -14.9728 -20.8621 0.0000 0.0000 0.0000 -13.3842 -4.6366 1.6579 -55.1363 -16.4501 19.6573 -9.4255 -80.8549 -14.9578 23.9828 2.6181 -0.5864 0.0000 0.0000 0.0000 15.3792 2.7696 1.3922 59.6612 22.5132 38.7488 170.0340 82.9018 152.2231 -12.6428 3.6708 -0.9601 0.0000 0.0000 0.0000 7.3401 0.7306 -16.9036 -2.4710 -3.5591 33.1283 -18.9628 -0.5001 -14.8780 -0.0000 -0.0000 -0.0000
0.7663 37.4580 11.5346 173.8870 -5.2720 -179.0580 0.0000 0.0000 0.0000 -20.5811 -10.1969 -13.6172 -5.4733 -5.1206 39.9116 28.4014 -0.6009 -9.0995 -0.0000 -0.0000 0.0000 0.0000 0.0000 0.0000 3.0220 2.3036 10.8057 -7.0422 5.3414 21.7000 0.0000 0.0000 0.0000 0.6790 -13.9189 -20.3613 0.0000 0.0000 0.0000 -13.1068 -4.3861 1.5870 -55.8954 -15.4164 21.2036 -9.3172 -80.8138 -14.7870 23.3751 2.4801 -0.5997 0.0000 0.0000 0.0000 14.9029 2.5915 1.3261 60.4506 20.9054 39.6687 171.4619 82.9264 157.8728 -10.6656 3.3806 -0.7782 0.0000 0.0000 0.0000 7.5417 0.0367 -15.2981 -0.8168 -1.7117 29.0933 -19.7780 0.0201 -11.6299 -0.0000 -0.0000 -0.0000
1.0977 37.9922 11.3792 174.4590 -4.2644 -178.3900 0.0000 0.0000 0.0000 -17.7932 -8.7451 -13.4751 -3.0003 -3.0979 36.2250 29.4124 -0.4418 -9.8028 -0.0000 -0.0000 0.0000 0.0000 0.0000 0.0000 3.1084 2.2045 10.2718 -7.6456 5.4693 21.2169 0.0000 0.0000 0.0000 0.7082 -12.5275 -20.0174 0.0000 0.0000 0.0000 -13.1076 -4.1168 1.5329 -56.6325 -14.1091 22.8396 -9.2791 -80.8800 -14.3973 23.7209 2.2129 -0.6624 0.0000 0.0000 0.0000 14.4130 2.3811 1.2541 60.8155 19.7127 40.4077 172.7536 83.0530 163.1422 -9.3363 3.4601 -0.6827 0.0000 0.0000 0.0000 8.4980 -0.8656 -14.0489 0.7457 0.6359 25.4695 -20.3669 0.6889 -7.7517 -0.0000 -0.0000 -0.0000
1.4830 38.4606 11.2290 175.3740 -3.9587 -177.6070 0.0000 0.0000 0.0000 -14.6792 -8.1580 -13.0187 -3.0417 -3.5906 32.6040 26.8678 -0.4274 -9.6946 -0.0000 -0.0000 0.0000 0.0000 0.0000 0.0000 3.6175 1.8566 9.4585 -7.5294 5.1454 20.9454 0.0000 0.0000 0.0000 0.7356 -10.9631 -19.8334 0.0000 0.0000 0.0000 -12.9798 -4.0488 1.5105 -57.3070 -12.7077 24.2348 -9.0335 -80.9360 -13.4387 24.5330 1.7246 -0.7869 0.0000 0.0000 0.0000 13.6682 2.2418 1.1855 61.0941 18.9654 40.9371 174.3599 83.0165 168.9826 -8.5875 3.9020 -0.6549 0.0000 0.0000 0.0000 9.9252 -1.9333 -13.4214 1.8892 2.8571 22.5472 -20.3451 1.3357 -4.0251 -0.0000 -0.0000 -0.0000
1.9126 38.7190 11.0716 176.0960 -4.1060 -176.6990 0.0000 0.0000 0.0000 -12.0444 -8.7145 -12.6731 -4.2517 -5.6185 30.0043 22.1634 -0.3680 -9.6650 -0.0000 -0.0000 0.0000 0.0000 0.0000 0.0000 4.0218 1.3889 8.2601 -6.9225 4.5177 20.8600 0.0000 0.0000 0.0000 0.7242 -9.3449 -19.5513 0.0000 0.0000 0.0000 -12.4150 -4.0833 1.4786 -58.0378 -11.2423 25.5977 -9.0118 -81.2476 -12.1358 25.6712 1.0989 -0.9605 0.0000 0.0000 0.0000 12.6088 2.1251 1.1074 61.6784 18.5827 41.2781 175.7069 82.9080 173.7266 -7.8677 4.2165 -0.6161 0.0000 0.0000 0.0000 11.2785 -2.4599 -13.5506 2.3737 4.0717 20.8091 -20.2071 1.7384 -1.6534 -0.0000 -0.0000 -0.0000
2.3754 38.6745 10.9455 176.2980 -4.2296 -176.1640 0.0000 0.0000 0.0000 -10.5671 -9.3403 -12.5596 -5.1105 -7.0342 29.2062 19.1955 -0.1071 -10.9434 -0.0000 -0.0000 0.0000 0.0000 0.0000 0.0000 3.8932 0.9687 7.4434 -6.2645 3.8547 20.6429 0.0000 0.0000 0.0000 0.5268 -7.7510 -19.1337 0.0000 0.0000 0.0000 -12.0705 -4.0460 1.4478 -58.2152 -9.9975 27.1610 -9.7059 -82.0789 -10.5645 27.0067 0.4837 -1.1534 0.0000 0.0000 0.0000 11.7020 1.8154 1.0029 62.1247 18.5539 41.7200 176.1898 82.6193 175.0902 -7.6074 4.1770 -0.5919 0.0000 0.0000 0.0000 12.1797 -2.3973 -14.2255 2.5997 4.4850 21.0867 -20.4453 1.8591 -1.0780 -0.0000 -0.0000 -0.0000
2.8111 38.4195 10.8977 176.3020 -4.1306 -176.6480 0.0000 0.0000 0.0000 -9.9551 -8.8977 -12.1874 -5.4146 -7.2686 29.9746 19.0026 0.3000 -13.4183 -0.0000 -0.0000 0.0000 0.0000 0.0000 0.0000 3.6502 0.5982 7.7048 -5.7298 3.3207 20.7265 0.0000 0.0000 0.0000 0.1437 -6.3336 -19.1819 0.0000 0.0000 0.0000 -12.7369 -3.9689 1.4781 -57.4903 -9.7055 28.6641 -10.4966 -82.9707 -8.5312 28.4161 -0.1469 -1.3693 0.0000 0.0000 0.0000 11.4513 1.2848 0.8918 61.4669 19.2002 42.0638 176.0475 81.8463 173.4245 -8.1546 3.9858 -0.6254 0.0000 0.0000 0.0000 12.7773 -2.1371 -14.7943 3.1188 4.9800 23.4618 -20.4031 1.7462 -1.7054 -0.0000 -0.0000 -0.0000
3.1558 38.1164 10.9019 176.6430 -3.8388 -177.9660 0.0000 0.0000 0.0000 -9.2181 -7.4184 -11.5129 -5.8188 -7.3781 31.5881 19.2056 0.7031 -15.8587 -0.0000 -0.0000 0.0000 0.0000 0.0000 0.0000 3.9700 0.1998 8.4229 -5.3055 2.9271 22.0333 0.0000 0.0000 0.0000 -0.4415 -5.1171 -20.2508 0.0000 0.0000 0.0000 -14.1090 -3.9949 1.5768 -56.9236 -10.6689 29.5345 -9.8458 -83.0219 -7.0074 29.8993 -0.7717 -1.6045 0.0000 0.0000 0.0000 11.7333 0.8850 0.8289 59.5999 20.7758 41.6455 175.8927 80.8965 171.2538 -8.7233 3.8473 -0.6623 0.0000 0.0000 0.0000 13.4364 -1.7961 -15.0932 4.0299 5.7144 27.1559 -19.0221 1.4327 -2.9099 -0.0000 -0.0000 -0.0000
